inDegrees=yes
name=ik_lifting_orientations
DataType=double
version=3
OpenSimVersion=4.5-2024-01-10-34fd6af
endheader
time	pelvis_tilt	pelvis_list	pelvis_rotation	pelvis_tx	pelvis_ty	pelvis_tz	hip_flexion_r	hip_adduction_r	hip_rotation_r	knee_angle_r	knee_angle_r_beta	ankle_angle_r	subtalar_angle_r	mtp_angle_r	hip_flexion_l	hip_adduction_l	hip_rotation_l	knee_angle_l	knee_angle_l_beta	ankle_angle_l	subtalar_angle_l	mtp_angle_l	lumbar_extension	lumbar_bending	lumbar_rotation	arm_flex_r	arm_add_r	arm_rot_r	elbow_flex_r	pro_sup_r	wrist_flex_r	wrist_dev_r	arm_flex_l	arm_add_l	arm_rot_l	elbow_flex_l	pro_sup_l	wrist_flex_l	wrist_dev_l
0.02	-0.002067058123587841	-0.005431038977191376	-89.96607239415397	0	0.9399999998679526	0	45.13289321176762	-10.88028909503355	0	60.16227962898761	1.050029865031346	-5.161472021444021	0	0	45.13289321176762	-10.88028909503355	0	60.16227962898761	1.050029865031346	-5.161472021444021	0	0	-0.009654248208736017	0.001065590644791114	0.007001769266622043	-0.2222533847612332	-0.05508717906467089	-0.01366785918828074	0.4754692175168346	2.696075691931962	0	0	0	-9.485432908225363	0	87.36110311761763	2.696075691931962	0	0
0.03	0.008190488556141498	-0.07235968124607529	-89.89764246250201	0	0.9399999998679526	0	45.13287935777358	-10.87996975052465	0	60.16226631235986	1.050029632612347	-5.161395709338701	0	0	45.13287935777358	-10.87996975052465	0	60.16226631235986	1.050029632612347	-5.161395709338701	0	0	-0.01343205375999419	-0.03255470110182966	-0.01311374962202982	-0.3012365692188333	-0.3266328373205664	-0.1577905663723284	0.5248577442923074	2.695879692232375	0	0	0	-9.485728793190855	0	87.36129494120391	2.695879692232375	0	0
0.04	0.05090899732647094	-0.08012291460637153	-89.94278071465595	0	0.9399999998679526	0	45.13286478232095	-10.87963349313542	0	60.16225231396835	1.050029388294325	-5.161315346951761	0	0	45.13286478232095	-10.87963349313542	0	60.16225231396835	1.050029388294325	-5.161315346951761	0	0	-0.02649670695132316	-0.07162391529046273	0.01456074941205398	-0.3835506456365989	-0.658869497165816	-0.3051491915548614	0.559479417696799	2.695673547580257	0	0	0	-9.486039912282827	0	87.36149669357528	2.695673547580257	0	0
0.05	0.04700401685361468	-0.08603739568967471	-89.96576810695959	0	0.9399999998679526	0	45.13284258618233	-10.87912028647325	0	60.16223103873428	1.050029016971441	-5.161192651008255	0	0	45.13284258618233	-10.87912028647325	0	60.16223103873428	1.050029016971441	-5.161192651008255	0	0	0.02255968905739844	-0.05696931722847746	-0.002754268825873098	-0.5365574114507207	-1.030010164531224	-0.346727585927959	0.5982510066671797	2.695359851585935	0	0	0	-9.486513053980564	0	87.36180370567115	2.695359851585935	0	0
0.06	0.08931046506454583	-0.02235913465739816	-90.12927684261182	0	0.9399999998679526	0	45.13280479621118	-10.87824623299266	0	60.162194840468	1.050028385192511	-5.160983697570017	0	0	45.13280479621118	-10.87824623299266	0	60.162194840468	1.050028385192511	-5.160983697570017	0	0	0.1529060782926325	-0.09894019497687902	0.1662371676834578	-0.7957492831330251	-1.338233613339334	-0.4521680402177581	0.8248108041752932	2.694825878667399	0	0	0	-9.487318282973177	0	87.36232630124695	2.694825878667399	0	0
0.07000000000000001	0.1677791357137837	0.02437578362117454	-90.36345159397509	0	0.9399999998679526	0	45.1327703808977	-10.87745217708967	0	60.16216182519396	1.050027808967276	-5.160793986121901	0	0	45.1327703808977	-10.87745217708967	0	60.16216182519396	1.050027808967276	-5.160793986121901	0	0	0.1979491662806594	-0.1725016550801493	0.397106375675412	-1.019209712104352	-1.438603869239969	-0.6594401516007964	1.033353115696464	2.694339280569376	0	0	0	-9.488052452344512	0	87.36280253147814	2.694339280569376	0	0
0.08	0.3238379324737543	0.1069970413720134	-90.77858269406723	0	0.9399999998679526	0	45.13273449951916	-10.87662957787797	0	60.16212724755875	1.050027205473694	-5.160597734243749	0	0	45.13273449951916	-10.87662957787797	0	60.16212724755875	1.050027205473694	-5.160597734243749	0	0	0.4661237452594307	-0.3278137702073503	0.8217449298481587	-1.843259158564618	-1.560361357501794	-0.8661831991563118	1.746552986343706	2.693831036143304	0	0	0	-9.48882043185472	0	87.36329994700229	2.693831036143304	0	0
0.09	0.4669791459448672	0.2237121956779554	-91.17354575437054	0	0.9399999998679526	0	45.13269057768834	-10.87561914431405	0	60.16208506184998	1.050026469194179	-5.160356551077702	0	0	45.13269057768834	-10.87561914431405	0	60.16208506184998	1.050026469194179	-5.160356551077702	0	0	0.7307851717063829	-0.4618165558610056	1.272703943541146	-1.873207906314906	-1.77184939923098	-0.8965370263774067	1.794627388808353	2.693209655418066	0	0	0	-9.489758382552012	0	87.36390808814537	2.693209655418066	0	0
0.1	0.5795704978514883	0.3237164450798142	-91.51919500226607	0	0.9399999998679526	0	45.13264984207942	-10.87468465140302	0	60.16204586930797	1.050025785155278	-5.160133654489455	0	0	45.13264984207942	-10.87468465140302	0	60.16204586930797	1.050025785155278	-5.160133654489455	0	0	0.8973964223995834	-0.5657736376501934	1.620939613949445	-1.820001881042551	-1.940347947723403	-0.8806326572080028	1.795469695985803	2.692632932056532	0	0	0	-9.490629440921159	0	87.36447252351054	2.692632932056532	0	0
0.11	0.683069758917295	0.488956886744932	-91.80522522407995	0	0.9399999998679526	0	45.13262413715281	-10.87409409615833	0	60.16202118014102	1.050025354248025	-5.159992777833453	0	0	45.13262413715281	-10.87409409615833	0	60.16202118014102	1.050025354248025	-5.159992777833453	0	0	1.262008152062241	-0.6431607507722215	1.950784928882346	-1.538075436948289	-2.089973936146713	-0.768999215993349	1.369301813235481	2.692269225140653	0	0	0	-9.491178479545523	0	87.36482848103898	2.692269225140653	0	0
0.12	0.7755256238571304	0.6164683004395823	-91.98158908640396	0	0.9399999998679526	0	45.13259819392144	-10.87349587008789	0	60.16199634499183	1.050024920792902	-5.159849988023263	0	0	45.13259819392144	-10.87349587008789	0	60.16199634499183	1.050024920792902	-5.159849988023263	0	0	1.529095152846423	-0.7305462580231672	2.199516020098728	-1.256557559506799	-2.463458626063958	-0.4665338248866127	0.5310371189045008	2.691902599566757	0	0	0	-9.491731336459653	0	87.36518729495177	2.691902599566757	0	0
0.13	1.043834875746566	1.130052040251982	-92.74384854935103	0	0.9399999998679526	0	45.13256894860742	-10.87285124551831	0	60.16196733953177	1.050024414552123	-5.159697457689603	0	0	45.13256894860742	-10.87285124551831	0	60.16196733953177	1.050024414552123	-5.159697457689603	0	0	2.220847546646888	-0.9376451826077361	3.043834579888796	-1.156752981285269	-2.614296823201574	-0.4449060109827292	0.2324180619195816	2.691483594403349	0	0	0	-9.492370511274769	0	87.36559737351891	2.691483594403349	0	0
0.14	1.182311108854892	1.473976018489686	-93.18018739758881	0	0.9399999998679526	0	45.13253893145324	-10.87216702562366	0	60.16193835725726	1.050023908716008	-5.159534538749334	0	0	45.13253893145324	-10.87216702562366	0	60.16193835725726	1.050023908716008	-5.159534538749334	0	0	2.764792576579611	-1.033910769308828	3.416901741160836	-1.224083327811454	-2.7094334749806	-0.4735697688890858	0.1336008593595538	2.691057958652216	0	0	0	-9.493014175319079	0	87.36601394056574	2.691057958652216	0	0
0.15	1.339995169244292	1.885456067419951	-93.66534019383363	0	0.9399999998679526	0	45.13250485082376	-10.87139254278916	0	60.16190538728796	1.050023333281489	-5.159350262983802	0	0	45.13250485082376	-10.87139254278916	0	60.16190538728796	1.050023333281489	-5.159350262983802	0	0	3.570390768159582	-1.120140322027453	3.848416931869073	-1.500772308075338	-2.883435256470089	-0.4269538806638916	0.1085215019464801	2.690574312482241	0	0	0	-9.493746049601555	0	87.36648728212381	2.690574312482241	0	0
0.16	1.509137160188384	2.352749163780289	-94.08403587435258	0	0.9399999998679526	0	45.13246868887924	-10.87056299775513	0	60.16187067658338	1.050022727465409	-5.159152550580527	0	0	45.13246868887924	-10.87056299775513	0	60.16187067658338	1.050022727465409	-5.159152550580527	0	0	4.370294423614177	-1.212146700013199	4.083595369828799	-1.33646458384518	-2.88984387034546	-0.4902185997684534	0.07415950077591411	2.690062649468129	0	0	0	-9.494518376487582	0	87.36698804330578	2.690062649468129	0	0
0.17	1.620578361944075	2.854635560344562	-94.41541475476325	0	0.9399999998679526	0	45.13241270295519	-10.86927624043667	0	60.16181705394107	1.050021791573747	-5.158845817856438	0	0	45.13241270295519	-10.86927624043667	0	60.16181705394107	1.050021791573747	-5.158845817856438	0	0	5.212664533576375	-1.231565991647351	4.355027145845507	-1.319696935415923	-3.232044380033258	-0.5452021189383283	0.06697971975267618	2.689271090543849	0	0	0	-9.495712396295371	0	87.36776273663855	2.689271090543849	0	0
0.18	1.715215863234332	3.411985677462339	-94.67916005833015	0	0.9399999998679526	0	45.13236781273591	-10.86824842313472	0	60.16177395612097	1.050021039374885	-5.158601042735567	0	0	45.13236781273591	-10.86824842313472	0	60.16177395612097	1.050021039374885	-5.158601042735567	0	0	6.091236472796396	-1.228486000042669	4.565960939274055	-1.1995247386555	-3.535487943100398	-0.4574697095030283	0.05852421303061998	2.688635775427894	0	0	0	-9.496671513490666	0	87.36838451534523	2.688635775427894	0	0
0.19	1.723618724474889	3.987143963726297	-94.77184399666939	0	0.9399999998679526	0	45.13232007787065	-10.86715242863876	0	60.16172825898085	1.050020241809332	-5.158339946107716	0	0	45.13232007787065	-10.86715242863876	0	60.16172825898085	1.050020241809332	-5.158339946107716	0	0	7.037209296987162	-1.157822426567803	4.660543510075756	-1.102703417094906	-4.050665088191784	-0.4396607029302587	0.05255015390219538	2.687960894903096	0	0	0	-9.497689447881578	0	87.36904501632563	2.687960894903096	0	0
0.2	1.663900947567482	5.277439469214989	-94.74932687270591	0	0.9399999998679526	0	45.132268452289	-10.86597605791005	0	60.16167857339642	1.050019374632293	-5.158060177418371	0	0	45.132268452289	-10.86597605791005	0	60.16167857339642	1.050019374632293	-5.158060177418371	0	0	9.195250685283137	-0.9314213745129611	4.515217191318236	-1.471015046882068	-4.50039444336614	-0.2751122975319211	0.0480162496270736	2.687229446593218	0	0	0	-9.498794662895396	0	87.36976088011802	2.687229446593218	0	0
0.21	1.618148860303789	5.975822094771786	-94.67921141352086	0	0.9399999998679526	0	45.13222150894995	-10.86490255940125	0	60.16163354768258	1.050018588785338	-5.157804745436631	0	0	45.13222150894995	-10.86490255940125	0	60.16163354768258	1.050018588785338	-5.157804745436631	0	0	10.19392572495656	-0.8230952615966661	4.307101326411351	-1.314644802872647	-4.894598084430068	-0.1693613893493253	0.04440835590439147	2.686565159010505	0	0	0	-9.49979733027082	0	87.37041101398133	2.686565159010505	0	0
0.22	1.223976424073964	7.828190595833671	-93.98487352101571	0	0.9399999998679526	0	45.13217672131788	-10.86389137095566	0	60.16159017724977	1.050017831828487	-5.157564780117192	0	0	45.13217672131788	-10.86389137095566	0	60.16159017724977	1.050017831828487	-5.157564780117192	0	0	11.82384318179214	-0.4421839445951502	3.638730239839095	-0.7353416737652837	-5.146900483216414	-0.2994485528529574	0.04188083345972279	2.685928990516603	0	0	0	-9.500760579569464	0	87.37103362834191	2.685928990516603	0	0
